<?xml version="1.0" encoding="UTF-8"?>
<svg id="Capa_2" data-name="Capa 2" xmlns="http://www.w3.org/2000/svg" viewBox="0 0 981.77 71.99">
  <defs>
    <style>
      .cls-1 {
        fill: #f26522;
      }

      .cls-2 {
        fill: #ffde17;
      }
    </style>
  </defs>
  <g id="Layer_1" data-name="Layer 1">
    <g>
      <path class="cls-1" d="M971.11,32.22c-.22,5.63-4.64,5.52-4.64,5.52,2.1-5.08-1.32-6.51-1.32-6.51,0,0-5.3,1.88-1.66,10.82,3.64,8.94-4.09,11.04-4.09,11.04,0,0,3.42-4.53,0-10.27-3.42-5.74-2.1-12.37-2.1-12.37-3.53,3.97-2.54,8.06-2.54,8.06-4.31-6.96.11-6.07-1.77-15.68-1.88-9.61-11.92-3.2-7.73,1.1,4.2,4.31-1.66,9.94-1.66,9.94,1.77-6.74-4.42-8.06-4.42-8.06,2.98,2.43,1.88,7.29-.77,9.61s-2.1,8.17-2.1,8.17c-4.09-5.63,0-6.51-1.66-14.24-1.66-7.73-9.61-4.86-5.85,2.54s-2.43,10.71-2.43,10.71c3.31-6.74-2.98-12.59-2.87-12.26.11.33,2.98,5.52-.77,8.61-3.75,3.09-2.21,11.48-2.21,11.48-3.53-3.2-2.1-6.62-1.55-13.36.55-6.74-2.76-9.72-4.86-6.62s0,7.07,0,7.07c-2.54-2.76-2.65-6.4-1.1-11.7,1.55-5.3-4.64-7.84-3.64-2.54.99,5.3-3.75,6.29-3.75,6.29,2.32-1.99,1.44-4.97,0-7.29-1.44-2.32-6.4-3.42-3.75,3.42,2.65,6.85-2.76,8.5-2.76,8.5,1.32-3.42-1.55-6.74-1.55-6.74,0,0,.99,2.87-2.1,5.41-3.09,2.54-1.21,7.4-1.21,7.4,0,0-4.97-3.42-1.92-8.83,3.04-5.41-.06-9.5-.06-9.5,0,0,.77,2.76-3.09,5.52-3.86,2.76-4.42,7.62-4.42,7.62-3.31-5.63,5.19-6.96,1.66-15.13-3.53-8.17-11.15-.11-8.5,3.42,2.65,3.53,0,7.4,0,7.4-.11-4.53-5.19-5.63-5.19-5.63,6.62,8.61-1.88,15.02-1.88,15.02,3.09-7.29-2.43-11.15-2.43-11.15,0,0,2.65,4.75-1.32,8.94-3.97,4.2-2.76,12.37-2.76,12.37,0,0-4.31-4.86-2.32-9.83,1.99-4.97-2.1-8.94-2.1-8.94-.44,8.06-6.62,5.96-6.62,5.96,0,0,6.62-.44,3.2-12.48-3.42-12.04-17-3.2-11.48,1.99,5.52,5.19,5.19,8.39,2.76,12.59-2.43,4.2-1.88,8.06-1.88,8.06,0,0-1.88-3.09-.66-7.62,1.21-4.53-6.74-8.5-5.41.33,1.32,8.83-5.3,8.83-5.3,8.83,0,0,5.3-2.43,1.1-11.7-4.2-9.27-12.92-15.57-7.84-5.74,5.08,9.83,1.21,14.69-4.63,20.1-5.84,5.41,0,10.27,0,10.27,0,0-8.51-4.42-2.61-13.14,5.9-8.72-.05-16.12-.05-16.12.66,8.72-5.63,10.49-5.63,10.49,5.19-6.96,0-16.67,0-16.67-3.09,5.3-1.77,12.15-1.77,12.15,0,0-4.53-3.53-1.77-13.36,2.76-9.83-5.96-11.48-5.96-11.48,4.31,6.29.66,10.6.66,10.6,0,0,0-8.06-4.86-12.7-4.86-4.64-13.8,1.71-6.96,8.17,6.81,6.43,5.2,10.7-2.54,17.37-4.65,4-4.75,11.89-4.75,11.89-6.37-12.56,9.63-19.91,1.65-23.42-7.55-3.32-7.72,11.49-7.72,11.49-4.86-9.83,3.75-15.02-.88-22.75-4.64-7.73-14.8-1.74-9.5,6.65,5.3,8.39-1.99,11.7-1.99,11.7,1.55-4.86-.88-7.29-.88-7.29-3.97,2.98-2.32,11.04-2.32,11.04,0,0-4.2-2.43-2.32-10.27,1.88-7.84-3.35-10.16-3.35-10.16,0,0,2.8,7.95-6.77,15.75-9.57,7.8-6.18,13.99-6.18,13.99,0,0-9.86-2.65-5.35-12.37,4.51-9.72-.39-12.96-.39-12.96,1.62,5.45-2.36,7.07-2.36,7.07,3.09-15.16-14.28-10.01-10.45,1.77,3.83,11.78-7.51,16.34-7.51,16.34,1.18-7.07-6.92-9.27-6.92-9.27,7.07,7.51,0,15.75,0,15.75-.74-7.8-4.12-8.39-4.12-8.39,4.42,17.22-10.01,13.4-10.01,13.4,3.24-.74,7.36-3.09.74-15.9-6.62-12.81,2.36-16.49,2.36-16.49-8.39.74-8.69,11.19-8.69,11.19-6.04-8.39,4.86-9.42,5.3-17.81.44-8.39-8.69-10.6-8.69-10.6,6.18,4.27,8.69,13.84-1.62,17.22-10.31,3.39-17.08,8.24-6.33,14.87,10.75,6.62,2.8,15.02,2.8,15.02,2.36-11.04-9.13-11.34-9.13-11.34,7.66,7.36,1.18,15.9,1.18,15.9.15-8.24-8.1-9.42-10.45-16.93-2.36-7.51,4.71-15.16,4.71-15.16-4.86-.15-7.51,7.36-7.51,7.36-3.24-8.54,13.84-17.22,0-22.67-13.84-5.45-17.37,8.69-10.45,12.96,6.92,4.27,3.39,9.13,3.39,9.13-.88-4.27-5.15-6.77-4.86.59.29,7.36-4.86,7.8-4.86,7.8,0,0,4.42-5.01-1.03-14.57-5.45-9.57-15.16-1.62-7.65,8.1,7.51,9.72-.15,15.75-.15,15.75.88-5.89-2.36-8.69-2.36-8.69-7.36,8.54-1.47,13.54-1.47,13.54-5.15-1.18-7.51-5.01-5.89-13.25,1.62-8.24-1.47-12.37-5.15-11.48s-2.21,7.8-2.21,7.8c-5.59-4.71,3.09-10.01-4.42-15.9-7.51-5.89-11.78,5.74-5.45,9.42,6.33,3.68,5.3,11.04,0,15.31-5.3,4.27-5.01,11.04-5.01,11.04-6.92-6.62,5.74-18.84-1.18-18.7-6.92.15-6.04,7.51-6.04,7.51,0,0-2.8-2.06.88-9.42,3.68-7.36-5.74-12.22-5.74-12.22,2.94,5.45,2.21,10.01-5.01,16.49-7.21,6.48,0,12.66,0,12.66-6.77-1.32-8.98-6.48-6.04-14.13,2.94-7.66,1.77-17.37-2.65-14.28-4.42,3.09-1.62,8.1-1.62,8.1-3.24-1.62-4.56-4.71-2.8-11.34,1.77-6.62-6.18-11.04-4.86-4.56,1.32,6.48-4.56,7.95-4.56,7.95,0,0,5.15-6.04-.74-13.25-5.89-7.21-9.42.88-6.77,4.71,2.65,3.83,2.94,10.01-4.71,14.57-7.66,4.56-3.09,12.81-3.09,12.81-6.92-4.86-5.01-10.6-1.33-18.11,3.68-7.51-1.47-10.45-1.47-10.45.74,7.21-4.42,8.98-4.42,8.98,0,0,3.83-10.6-4.12-12.96-7.95-2.36-14.72,5.45-4.56,12.37,10.16,6.92,5.15,16.49,5.15,16.49.74-9.72-10.16-11.92-10.16-11.92,6.48,6.18,6.77,12.66-2.94,19.43-9.72,6.77-4.56,11.48-4.56,11.48-6.04-2.94-6.18-9.27-2.06-12.96s5.3-11.34-1.18-11.34-5.01,7.07-5.01,7.07c-6.04-9.57,4.27-10.16-1.03-18.4-5.3-8.24-12.22-3.83-7.07,5.15,5.15,8.98-2.06,14.28-2.06,14.28,1.62-8.69-4.27-13.25-12.51-23.26-.74-.9-1.38-1.83-1.93-2.76-3.03,5.37-6.84,9.96-6.94,12.6-.22,5.63-4.64,5.52-4.64,5.52,2.1-5.08-1.32-6.51-1.32-6.51,0,0-5.3,1.88-1.66,10.82s-4.09,11.04-4.09,11.04c0,0,3.42-4.53,0-10.27-3.42-5.74-2.1-12.37-2.1-12.37-3.53,3.97-2.54,8.06-2.54,8.06-4.31-6.96.11-6.07-1.77-15.68-1.88-9.61-11.92-3.2-7.73,1.1,4.2,4.31-1.66,9.94-1.66,9.94,1.77-6.74-4.42-8.06-4.42-8.06,2.98,2.43,1.88,7.29-.77,9.61s-2.1,8.17-2.1,8.17c-4.09-5.63,0-6.51-1.66-14.24-1.66-7.73-9.61-4.86-5.85,2.54s-2.43,10.71-2.43,10.71c3.31-6.74-2.98-12.59-2.87-12.26.11.33,2.98,5.52-.77,8.61-3.75,3.09-2.21,11.48-2.21,11.48-3.53-3.2-2.1-6.62-1.55-13.36.55-6.74-2.76-9.72-4.86-6.62-2.1,3.09,0,7.07,0,7.07-2.54-2.76-2.65-6.4-1.1-11.7,1.55-5.3-4.64-7.84-3.64-2.54.99,5.3-3.75,6.29-3.75,6.29,2.32-1.99,1.44-4.97,0-7.29-1.44-2.32-6.4-3.42-3.75,3.42,2.65,6.85-2.76,8.5-2.76,8.5,1.32-3.42-1.55-6.74-1.55-6.74,0,0,.99,2.87-2.1,5.41-3.09,2.54-1.21,7.4-1.21,7.4,0,0-4.97-3.42-1.92-8.83,3.04-5.41-.06-9.5-.06-9.5,0,0,.77,2.76-3.09,5.52s-4.42,7.62-4.42,7.62c-3.31-5.63,5.19-6.96,1.66-15.13-3.53-8.17-11.15-.11-8.5,3.42,2.65,3.53,0,7.4,0,7.4-.11-4.53-5.19-5.63-5.19-5.63,6.62,8.61-1.88,15.02-1.88,15.02,3.09-7.29-2.43-11.15-2.43-11.15,0,0,2.65,4.75-1.32,8.94-3.97,4.2-2.76,12.37-2.76,12.37,0,0-4.31-4.86-2.32-9.83,1.99-4.97-2.1-8.94-2.1-8.94-.44,8.06-6.62,5.96-6.62,5.96,0,0,6.62-.44,3.2-12.48-3.42-12.04-17-3.2-11.48,1.99,5.52,5.19,5.19,8.39,2.76,12.59-2.43,4.2-1.88,8.06-1.88,8.06,0,0-1.88-3.09-.66-7.62,1.21-4.53-6.74-8.5-5.41.33,1.32,8.83-5.3,8.83-5.3,8.83,0,0,5.3-2.43,1.1-11.7-4.2-9.27-12.92-15.57-7.84-5.74,5.08,9.83,1.21,14.69-4.63,20.1-5.84,5.41,0,10.27,0,10.27,0,0-8.51-4.42-2.61-13.14,5.9-8.72-.05-16.12-.05-16.12.66,8.72-5.63,10.49-5.63,10.49,5.19-6.96,0-16.67,0-16.67-3.09,5.3-1.77,12.15-1.77,12.15,0,0-4.53-3.53-1.77-13.36,2.76-9.83-5.96-11.48-5.96-11.48,4.31,6.29.66,10.6.66,10.6,0,0,0-8.06-4.86-12.7-4.86-4.64-13.8,1.71-6.96,8.17,6.81,6.43,5.2,10.7-2.54,17.37-4.65,4-4.75,11.89-4.75,11.89-6.37-12.56,9.63-19.91,1.65-23.42-7.55-3.32-7.72,11.49-7.72,11.49-4.86-9.83,3.75-15.02-.88-22.75-4.64-7.73-14.8-1.74-9.5,6.65,5.3,8.39-1.99,11.7-1.99,11.7,1.55-4.86-.88-7.29-.88-7.29-3.97,2.98-2.32,11.04-2.32,11.04,0,0-4.2-2.43-2.32-10.27,1.88-7.84-3.35-10.16-3.35-10.16,0,0,2.8,7.95-6.77,15.75-9.57,7.8-6.18,13.99-6.18,13.99,0,0-9.86-2.65-5.35-12.37,4.51-9.72-.39-12.96-.39-12.96,1.62,5.45-2.36,7.07-2.36,7.07,3.09-15.16-14.28-10.01-10.45,1.77,3.83,11.78-7.51,16.34-7.51,16.34,1.18-7.07-6.92-9.27-6.92-9.27,7.07,7.51,0,15.75,0,15.75-.74-7.8-4.12-8.39-4.12-8.39,4.42,17.22-10.01,13.4-10.01,13.4,3.24-.74,7.36-3.09.74-15.9-6.62-12.81,2.36-16.49,2.36-16.49-8.39.74-8.69,11.19-8.69,11.19-6.04-8.39,4.86-9.42,5.3-17.81.44-8.39-8.69-10.6-8.69-10.6,6.18,4.27,8.69,13.84-1.62,17.22-10.31,3.39-17.08,8.24-6.33,14.87,10.75,6.62,2.8,15.02,2.8,15.02,2.36-11.04-9.13-11.34-9.13-11.34,7.66,7.36,1.18,15.9,1.18,15.9.15-8.24-8.1-9.42-10.45-16.93-2.36-7.51,4.71-15.16,4.71-15.16-4.86-.15-7.51,7.36-7.51,7.36-3.24-8.54,13.84-17.22,0-22.67-13.84-5.45-17.37,8.69-10.45,12.96,6.92,4.27,3.39,9.13,3.39,9.13-.88-4.27-5.15-6.77-4.86.59.29,7.36-4.86,7.8-4.86,7.8,0,0,4.42-5.01-1.03-14.57-5.45-9.57-15.16-1.62-7.65,8.1,7.51,9.72-.15,15.75-.15,15.75.88-5.89-2.36-8.69-2.36-8.69-7.36,8.54-1.47,13.54-1.47,13.54-5.15-1.18-7.51-5.01-5.89-13.25,1.62-8.24-1.47-12.37-5.15-11.48s-2.21,7.8-2.21,7.8c-5.59-4.71,3.09-10.01-4.42-15.9-7.51-5.89-11.78,5.74-5.45,9.42,6.33,3.68,5.3,11.04,0,15.31-5.3,4.27-5.01,11.04-5.01,11.04-6.92-6.62,5.74-18.84-1.18-18.7-6.92.15-6.04,7.51-6.04,7.51,0,0-2.8-2.06.88-9.42,3.68-7.36-5.74-12.22-5.74-12.22,2.94,5.45,2.21,10.01-5.01,16.49-7.21,6.48,0,12.66,0,12.66-6.77-1.32-8.98-6.48-6.04-14.13,2.94-7.66,1.77-17.37-2.65-14.28-4.42,3.09-1.62,8.1-1.62,8.1-3.24-1.62-4.56-4.71-2.8-11.34,1.77-6.62-6.18-11.04-4.86-4.56,1.32,6.48-4.56,7.95-4.56,7.95,0,0,5.15-6.04-.74-13.25-5.89-7.21-9.42.88-6.77,4.71,2.65,3.83,2.94,10.01-4.71,14.57-7.66,4.56-3.09,12.81-3.09,12.81-6.92-4.86-5.01-10.6-1.33-18.11,3.68-7.51-1.47-10.45-1.47-10.45.74,7.21-4.42,8.98-4.42,8.98,0,0,3.83-10.6-4.12-12.96-7.95-2.36-14.72,5.45-4.56,12.37,10.16,6.92,5.15,16.49,5.15,16.49.74-9.72-10.16-11.92-10.16-11.92,6.48,6.18,6.77,12.66-2.94,19.43-9.72,6.77-4.56,11.48-4.56,11.48-6.04-2.94-6.18-9.27-2.06-12.96,4.12-3.68,5.3-11.34-1.18-11.34s-5.01,7.07-5.01,7.07c-6.04-9.57,4.27-10.16-1.03-18.4-5.3-8.24-12.22-3.83-7.07,5.15,5.15,8.98-2.06,14.28-2.06,14.28,1.62-8.69-4.27-13.25-12.51-23.26S1.34,0,1.34,0h977.5c9.61,12.04-7.51,26.58-7.73,32.22Z"/>
      <path class="cls-1" d="M78.76,37.63s-6.72,5.18-2.88,12.09c3.84,6.91.85,12.41.85,12.41,0,0,7.97-8.96,3.18-14.14-4.79-5.18-1.15-10.36-1.15-10.36Z"/>
      <path class="cls-1" d="M315.02,50.11s-5.12,4.35-2.3,10.49c2.81,6.14,3.38,9.08.73,11.39,0,0,5.92-1.66,3.49-8.96,0,0,3.71.9,2.94,5.76,0,0,3.84-3.71-.64-9.34-4.48-5.63-4.22-9.34-4.22-9.34Z"/>
      <path class="cls-1" d="M246.06,45.89s-4.35,2.94-2.69,8.06c1.66,5.12,6.91,7.17,2.69,13.43,0,0,9.72-2.3,3.71-11.52-6.01-9.21-3.71-9.98-3.71-9.98Z"/>
      <path class="cls-1" d="M393.12,37.06s.36,3.2-.17,5.37c-.89,3.62-2.59,5.23.17,9.6,0,0-4.52-2.09-4-9.6.37-5.37,4-5.37,4-5.37Z"/>
      <path class="cls-1" d="M186.3,71.61c2.94-8.83-4.16-6.72-9.72-12.28-2.69-2.69-2.91-4.66-3.1-5.46-2.29,3.23-1.38,6.1-1.38,6.1-6.14-8.44,4.09-15.48,4.09-15.48-.11,1.77,1.66,10.75,6.78,14.27,8.8,6.05,3.33,12.86,3.33,12.86Z"/>
      <path class="cls-1" d="M426.82,44.54s-4.75,2.16-1.78,7.2c1.75,2.98,5.05,4.03,4.95,9.79,0,0,1.2-4.39-.67-7.58-1.96-3.33-3.84-6.14-2.49-9.4Z"/>
      <g>
        <path class="cls-2" d="M200.35,17.48c-.58,5.85-9.02,6.14-9.02,6.14,9.88-3.84,4.03-12,4.03-12-.48,8.16-6.91,8.25-6.91,8.25,10.65-7.37-4.89-15.93-2.59-12.96,2.3,2.97.77,5.47.77,5.47,0,0-2.69-13.63-19.86-6.81-17.18,6.81-9.02,14.39-9.02,14.39-2.97-.48-4.61-3.74-3.07-7.49,1.54-3.74-1.82-7.49-1.82-7.49,1.06,2.88.86,6.24-4.61,7.97-5.47,1.73-3.74,6.81-3.74,6.81,0,0-4.41-3.93,1.34-7.77,5.76-3.84.96-9.31.96-9.31,0,0-.1,4.99-3.69,7.2-3.59,2.21-8.98,5.18-3.7,9.5s3.36,10.65,3.36,10.65c0,0-.67-3.55-7.01-7.58-6.33-4.03-4.8-9.79-4.8-9.79-2.59,3.45-.67,7.68-.67,7.68-5.66-6.05-1.25-5.18-2.97-11.9-1.73-6.72-12.38-3.84-10.27,2.5,2.11,6.33,1.44,6.33-2.4,8.83-3.84,2.5,0,6.62,0,6.62-2.78-1.54-3.36-5.09-2.4-8.54.96-3.45-2.78-5.28-3.74-1.63-.96,3.65-5.66,2.5-5.66,2.5,8.35-5.09,3.17-10.08,3.17-10.08-.48,6.62-4.03,5.28-6.81,7.1s-.67,7.39-.67,7.39c-4.7-5.18-3.26-7.29.1-12.57,3.36-5.28-9.21-7.87-6.91-2.21,2.3,5.66.86,8.16.86,8.16-1.25-8.64-11.14-13.34-11.14-13.34,1.53,4.03-.48,7.2-.48,7.2,0,0-1.44-7.77-8.35-7.49-6.91.29-6.53,6.43-6.53,6.43-.58-4.51-4.03-4.99-4.03-4.99,4.03,4.99,1.73,9.21,1.73,9.21-1.63-10.17-10.84-10.56-10.84-10.56,2.11,1.44,1.34,4.89,1.34,4.89C49.11-.08,29.82-1.33,35.77,7.02c5.95,8.35-1.06,13.05-2.3,16.99s2.78,6.05,2.78,6.05c-5.09-1.63-6.14-5.28-4.51-10.27,1.63-4.99-3.07-9.21-3.07-9.21,1.54,5.85-2.5,8.06-2.5,8.06C28.67,10.57,18.11-.66,9,7.79c-9.12,8.44.86,17.08.86,17.08-5.57-2.59-7.55-10.24-7.55-10.24C-.25,6.49,3.08,0,3.08,0h186.81c9.02,1.9,11.04,11.63,10.46,17.48Z"/>
        <path class="cls-2" d="M329.8,12.59c-2.4,5.18,1.92,9.69,1.92,9.69-2.3-.77-3.93-2.97-5.76-11.23-1.82-8.25-15.26-7.39-15.26-7.39,3.55,1.44,2.78,5.76,2.78,5.76-2.2-5.05-13.53-8.44-12.86-2.21.67,6.24-2.21,7.68-2.21,7.68,1.15-4.51-1.63-6.24-1.63-6.24,1.82,5.47-1.34,8.1-1.34,8.1,0,0,1.34-7.33-5.18-12.13-6.53-4.8-14.49-2.02-13.82,2.4.67,4.41-3.26,4.99-3.26,4.99,3.6-5.37-1.82-8.64-1.82-8.64,2.97,5.66.29,8.88-4.22,11.8-3.78,2.46-2.97,8.25-2.97,8.25,0,0-1.82-.96-.96-7.87.86-6.91-6.24-8.54-6.24-8.54,4.8,4.51,3.26,9.73,3.26,9.73-3.36-11.38-19.29-11.27-19.29-11.27,3.65,2.69,4.22,7.29,4.22,7.29-7.1-9.6-19.77-1.15-14.3,6.33,5.47,7.49,1.92,12.38,1.92,12.38,0,0,.86-9.69-5.47-8.35-6.33,1.34-7.29,10.36-7.29,10.36,0,0-2.78-3.17,2.11-11.04,4.89-7.87-1.54-12.57-1.54-12.57,1.34,5.95-3.84,7.87-3.84,7.87,5.66-7.1-1.15-15.16-1.15-15.16,1.06,1.82-.48,4.22-.48,4.22.19-5.37-4.51-6.83-4.51-6.83h111.99c4.99.85,9.6,7.41,7.2,12.59Z"/>
      </g>
      <path class="cls-2" d="M175.59,46.37s.19,9.79,6.57,12.67c0,0-10.65,1.44-6.57-12.67Z"/>
      <path class="cls-2" d="M314.5,51.5s-3.79,5.01.24,10.64c0,0-1.01-3.2,0-4.98,0,0,1.4,3.5,3.98,4.98,0,0-4.22-4.78-4.22-10.64Z"/>
      <path class="cls-2" d="M343.14,21.22s.85,4.36,4.65,5.57c3.02.96,3.93,1.39,5.52,2.97,0,0-.77-3.02-3.93-3.98-3.17-.96-4.32-1.76-6.24-4.56Z"/>
      <path class="cls-2" d="M458.4,2.8s7.39,3.74,7.01,9.84c0,0,4.13-9.69-7.01-9.84Z"/>
      <path class="cls-2" d="M13.9,6.49s-9.22,1.25-5.72,11.32c0,0,.13-1.62.67-2.79,0,0-.66,1.93,1.15,4.28,2.11,2.73,3.21,4.08,3.65,7.53,0,0,1.3-2.88-1.42-8.32-2.7-5.4,0-10.09,1.67-12.02Z"/>
      <path class="cls-1" d="M566.31,37.63s-6.72,5.18-2.88,12.09c3.84,6.91.85,12.41.85,12.41,0,0,7.97-8.96,3.18-14.14-4.79-5.18-1.15-10.36-1.15-10.36Z"/>
      <path class="cls-1" d="M802.58,50.11s-5.12,4.35-2.3,10.49c2.81,6.14,3.38,9.08.73,11.39,0,0,5.92-1.66,3.49-8.96,0,0,3.71.9,2.94,5.76,0,0,3.84-3.71-.64-9.34-4.48-5.63-4.22-9.34-4.22-9.34Z"/>
      <path class="cls-1" d="M733.61,45.89s-4.35,2.94-2.69,8.06c1.66,5.12,6.91,7.17,2.69,13.43,0,0,9.72-2.3,3.71-11.52-6.01-9.21-3.71-9.98-3.71-9.98Z"/>
      <path class="cls-1" d="M880.67,37.06s.36,3.2-.17,5.37c-.89,3.62-2.59,5.23.17,9.6,0,0-4.52-2.09-4-9.6.37-5.37,4-5.37,4-5.37Z"/>
      <path class="cls-1" d="M673.86,71.61c2.94-8.83-4.16-6.72-9.72-12.28-2.69-2.69-2.91-4.66-3.1-5.46-2.29,3.23-1.38,6.1-1.38,6.1-6.14-8.44,4.09-15.48,4.09-15.48-.11,1.77,1.66,10.75,6.78,14.27,8.8,6.05,3.33,12.86,3.33,12.86Z"/>
      <path class="cls-1" d="M914.38,44.54s-4.75,2.16-1.78,7.2c1.75,2.98,5.05,4.03,4.95,9.79,0,0,1.2-4.39-.67-7.58-1.96-3.33-3.84-6.14-2.49-9.4Z"/>
      <path class="cls-2" d="M687.9,17.48c-.58,5.85-9.02,6.14-9.02,6.14,9.88-3.84,4.03-12,4.03-12-.48,8.16-6.91,8.25-6.91,8.25,10.65-7.37-4.89-15.93-2.59-12.96,2.3,2.97.77,5.47.77,5.47,0,0-2.69-13.63-19.86-6.81-17.18,6.81-9.02,14.39-9.02,14.39-2.97-.48-4.61-3.74-3.07-7.49s-1.82-7.49-1.82-7.49c1.06,2.88.86,6.24-4.61,7.97-5.47,1.73-3.74,6.81-3.74,6.81,0,0-4.41-3.93,1.34-7.77,5.76-3.84.96-9.31.96-9.31,0,0-.1,4.99-3.69,7.2s-8.98,5.18-3.7,9.5c5.28,4.32,3.36,10.65,3.36,10.65,0,0-.67-3.55-7.01-7.58-6.33-4.03-4.8-9.79-4.8-9.79-2.59,3.45-.67,7.68-.67,7.68-5.66-6.05-1.25-5.18-2.97-11.9-1.73-6.72-12.38-3.84-10.27,2.5,2.11,6.33,1.44,6.33-2.4,8.83-3.84,2.5,0,6.62,0,6.62-2.78-1.54-3.36-5.09-2.4-8.54.96-3.45-2.78-5.28-3.74-1.63-.96,3.65-5.66,2.5-5.66,2.5,8.35-5.09,3.17-10.08,3.17-10.08-.48,6.62-4.03,5.28-6.81,7.1-2.78,1.82-.67,7.39-.67,7.39-4.7-5.18-3.26-7.29.1-12.57,3.36-5.28-9.21-7.87-6.91-2.21,2.3,5.66.86,8.16.86,8.16-1.25-8.64-11.14-13.34-11.14-13.34,1.53,4.03-.48,7.2-.48,7.2,0,0-1.44-7.77-8.35-7.49-6.91.29-6.53,6.43-6.53,6.43-.58-4.51-4.03-4.99-4.03-4.99,4.03,4.99,1.73,9.21,1.73,9.21-1.63-10.17-10.84-10.56-10.84-10.56,2.11,1.44,1.34,4.89,1.34,4.89-5.18-7.96-24.47-9.21-18.52-.86,5.95,8.35-1.06,13.05-2.3,16.99s2.78,6.05,2.78,6.05c-5.09-1.63-6.14-5.28-4.51-10.27,1.63-4.99-3.07-9.21-3.07-9.21,1.54,5.85-2.5,8.06-2.5,8.06,2.5-8.06-9.06-19.02-17.59-11.78-5.26,4.46-2.83,9.15-2.83,9.15-2.41-1.56-3.56-3.94-4.02-6.17-.16,3.67-2.52,4.87-2.52,4.87,1.67-9.47-6.5-11.22-6.5-11.22,5.66,4.22,5.28,12.28,0,15.64-5.28,3.36-6.72,9.69-6.72,9.69,0,0-.38-4.41,2.97-10.27,3.36-5.85-4.32-10.46-4.32-10.46,2.21,6.43-3.26,10.27-3.26,10.27,0,0,5.57-8.83-3.55-14.97-9.12-6.14-16.03-.48-15.07,3.36.96,3.84-2.5,5.28-2.5,5.28,3.07-6.14-2.97-7.97-2.97-7.97,0,0,6.81,5.09-2.97,9.12-9.79,4.03-8.54,12-8.54,12-3.64-8.21,4.13-11.04,6.53-15.55s-.96-8.16-.96-8.16c1.82,4.22-1.92,7.2-7.39,8.64-5.47,1.44-6.53,3.65-6.53,3.65-1.82-3.07,2.49-5.18,2.49-5.18-5.18.86-5.85,4.13-5.85,4.13-1.25-3.17,1.3-5.66,5.42-6.43,4.62-.86,5.46-3.13,5.47-3.17-.02.05-.51.88-8.49,1.44-8.25.58-10.27,3.93-10.27,3.93.38-4.61,6.72-5.57,6.72-5.57-14.78,0-11.04,8.92-11.04,8.92-2.88-4.61-1.44-7.29-1.44-7.29,0,0-3.84-.19-1.63,4.51,2.21,4.7-.96,7.72-.96,7.72,1.25-3.89-1.92-7.91-1.92-7.91.86,2.78-1.63,5.18-1.63,5.18,0,0,2.21-4.8-3.26-10.08-5.47-5.28-16.51-3.95-13.63.96,2.88,4.91-.96,7.77-.96,7.77.48-6.43-4.99-7.2-4.99-7.2,5.47,6.53,1.63,11.71-1.92,14.39-3.55,2.69-1.63,5.76-1.63,5.76-3.17-2.88.29-6.24,0-10.75-.29-4.51-4.03-6.72-4.03-6.72,1.54,4.51-.58,7.77-.58,7.77,0,0,.77-3.89-1.92-7.68-3.85-5.44-18.39-8.33-17.85.67.48,8.01-5.18,7.81-5.18,7.81,5.79-5.08-2.11-13.09-2.11-13.09,1.25,4.7-1.34,5.09-4.22,9.6s4.22,11.71,4.22,11.71c0,0-10.08-7.1-7.77-12.67s-1.25-9.6-1.25-9.6c0,2.11-1.44,2.69-1.44,2.69.67-4.32-1.63-5.39-1.63-5.39h345.72c9.02,1.9,11.04,11.63,10.46,17.48Z"/>
      <path class="cls-2" d="M817.36,12.59c-2.4,5.18,1.92,9.69,1.92,9.69-2.3-.77-3.93-2.97-5.76-11.23-1.82-8.25-15.26-7.39-15.26-7.39,3.55,1.44,2.78,5.76,2.78,5.76-2.2-5.05-13.53-8.44-12.86-2.21.67,6.24-2.21,7.68-2.21,7.68,1.15-4.51-1.63-6.24-1.63-6.24,1.82,5.47-1.34,8.1-1.34,8.1,0,0,1.34-7.33-5.18-12.13-6.53-4.8-14.49-2.02-13.82,2.4.67,4.41-3.26,4.99-3.26,4.99,3.6-5.37-1.82-8.64-1.82-8.64,2.97,5.66.29,8.88-4.22,11.8-3.78,2.46-2.97,8.25-2.97,8.25,0,0-1.82-.96-.96-7.87.86-6.91-6.24-8.54-6.24-8.54,4.8,4.51,3.26,9.73,3.26,9.73-3.36-11.38-19.29-11.27-19.29-11.27,3.65,2.69,4.22,7.29,4.22,7.29-7.1-9.6-19.77-1.15-14.3,6.33,5.47,7.49,1.92,12.38,1.92,12.38,0,0,.86-9.69-5.47-8.35-6.33,1.34-7.29,10.36-7.29,10.36,0,0-2.78-3.17,2.11-11.04,4.89-7.87-1.54-12.57-1.54-12.57,1.34,5.95-3.84,7.87-3.84,7.87,5.66-7.1-1.15-15.16-1.15-15.16,1.06,1.82-.48,4.22-.48,4.22.19-5.37-4.51-6.83-4.51-6.83h111.99c4.99.85,9.6,7.41,7.2,12.59Z"/>
      <path class="cls-2" d="M974.74,11.72c.19-7.77-6.91-8.25-6.91-8.25,5.66,4.22,5.28,12.28,0,15.64-5.28,3.36-6.72,9.69-6.72,9.69,0,0-.38-4.41,2.97-10.27,3.36-5.85-4.32-10.46-4.32-10.46,2.21,6.43-3.26,10.27-3.26,10.27,0,0,5.57-8.83-3.55-14.97-9.12-6.14-16.03-.48-15.07,3.36.96,3.84-2.5,5.28-2.5,5.28,3.07-6.14-2.97-7.97-2.97-7.97,0,0,6.81,5.09-2.97,9.12-9.79,4.03-8.54,12-8.54,12-3.64-8.21,4.13-11.04,6.53-15.55s-.96-8.16-.96-8.16c1.82,4.22-1.92,7.2-7.39,8.64-5.47,1.44-6.53,3.65-6.53,3.65-1.82-3.07,2.49-5.18,2.49-5.18-5.18.86-5.85,4.13-5.85,4.13-1.25-3.17,1.3-5.66,5.42-6.43,4.65-.86,5.47-3.17,5.47-3.17,0,0-.24.87-8.49,1.44-8.25.58-10.27,3.93-10.27,3.93.38-4.61,6.72-5.57,6.72-5.57-14.78,0-11.04,8.92-11.04,8.92-2.88-4.61-1.44-7.29-1.44-7.29,0,0-3.84-.19-1.63,4.51s-.96,7.72-.96,7.72c1.25-3.89-1.92-7.91-1.92-7.91.86,2.78-1.63,5.18-1.63,5.18,0,0,2.21-4.8-3.26-10.08-5.47-5.28-16.51-3.95-13.63.96,2.88,4.91-.96,7.77-.96,7.77.48-6.43-4.99-7.2-4.99-7.2,5.47,6.53,1.63,11.71-1.92,14.39-3.55,2.69-1.63,5.76-1.63,5.76-3.17-2.88.29-6.24,0-10.75s-4.03-6.72-4.03-6.72c1.54,4.51-.58,7.77-.58,7.77,0,0,.77-3.89-1.92-7.68-3.85-5.44-18.39-8.33-17.85.67.48,8.01-5.18,7.81-5.18,7.81,5.79-5.08-2.11-13.09-2.11-13.09,1.25,4.7-1.34,5.09-4.22,9.6s4.22,11.71,4.22,11.71c0,0-10.08-7.1-7.77-12.67,2.3-5.57-1.25-9.6-1.25-9.6,0,2.11-1.44,2.69-1.44,2.69.67-4.32-1.63-5.39-1.63-5.39h151.14c8.83,3.73,4.32,11.72,4.32,11.72Z"/>
      <path class="cls-2" d="M663.14,46.37s.19,9.79,6.57,12.67c0,0-10.65,1.44-6.57-12.67Z"/>
      <path class="cls-2" d="M802.05,51.5s-3.79,5.01.24,10.64c0,0-1.01-3.2,0-4.98,0,0,1.4,3.5,3.98,4.98,0,0-4.22-4.78-4.22-10.64Z"/>
      <path class="cls-2" d="M830.7,21.22s.85,4.36,4.65,5.57c3.02.96,3.93,1.39,5.52,2.97,0,0-.77-3.02-3.93-3.98-3.17-.96-4.32-1.76-6.24-4.56Z"/>
      <path class="cls-2" d="M945.95,2.8s7.39,3.74,7.01,9.84c0,0,4.13-9.69-7.01-9.84Z"/>
      <path class="cls-2" d="M501.45,6.49s-9.22,1.25-5.72,11.32c0,0,.13-1.62.67-2.79,0,0-.66,1.93,1.15,4.28,2.11,2.73,3.21,4.08,3.65,7.53,0,0,1.3-2.88-1.42-8.32-2.7-5.4,0-10.09,1.67-12.02Z"/>
    </g>
  </g>
</svg>