<?xml version="1.0" encoding="UTF-8"?>
<svg id="Capa_2" data-name="Capa 2" xmlns="http://www.w3.org/2000/svg" viewBox="0 0 185.54 321.62">
  <defs>
    <style>
      .cls-1 {
        fill: #f26522;
      }

      .cls-2 {
        fill: #ffde17;
      }
    </style>
  </defs>
  <g id="Layer_1" data-name="Layer 1">
    <g>
      <path class="cls-1" d="M185.02,233.07c1.47,34.21-36.17,44.48-36.17,44.48,0,0,38.12-45.94,3.42-75.27-34.7-29.33-28.84-49.85-28.84-49.85-19.06,42.03,12.22,42.52,6.84,71.85-6.65,36.3-54.74,16.62-35.68-20.04,3.96-7.62,27.61-39.83,9.47-63.54-14.78-19.31-18.03-38.86-8.74-45.7,0,0-20.44,8.42-19,26.2-45.06-42.2-3.24-74.35-3.24-74.35-35.68,24.44-31.28,56.7-21.51,86.51,9.77,29.81-4.96,52.79-4.96,52.79,7.26-42.03-35.12-45.45-35.12-45.45,25.9,12.22,26.39,38.12,12.22,90.91-12.13,45.17,15.09,62.77,23.2,66.91-31.34-14.9-38.36-41.49-38.36-41.49-3.42,50.83,58.22,62.63,76.25,64.03,113.88,8.8,100.19-87.98,100.19-87.98Z"/>
      <path class="cls-1" d="M11.13,241.66s-20.91-15.25-5.4-36.47c11.71-16.02,12.93-30.44,5.6-37.21,0,0,19.54,9.71,11.13,30.42-5.95,14.65-12.97,16.01-11.33,43.25Z"/>
      <path class="cls-1" d="M155.64,191.9s-30.06-27.13-20.53-56.08c9.53-28.96,11-39.59,5.13-54.8,0,0,20.11,21.55,11.18,48.57-6.78,20.53,2.02,23.46,2.02,23.46,0,0-3.3-8.8,4.22-20.53,0,0-2.78,13.1,4.95,27.13,9.9,17.96-6.96,32.26-6.96,32.26Z"/>
      <path class="cls-1" d="M76.64,66.71s0-17.41,18.69-29.33c15.73-10.03,18.33-26.39,5.86-37.39,0,0,28.34,11.22,15.76,32.26-11.18,18.69-26.94,8.98-40.32,34.46Z"/>
      <path class="cls-2" d="M127.6,294.17c35.92-35.92,19.24-63.23,19.24-63.23,5.68,20.53-15.03,35.01-15.03,35.01,5.5-8.8,2.2-18.15,2.2-18.15,0,0-2.02,16.31-20.34,28.96-18.33,12.65-28.96.73-24.93-15.03s-4.95-21.81-4.95-21.81c4.4,17.6-12.1,26.21-12.1,26.21,7.7-22.36,11-22.54-5.13-52.97-16.13-30.43,3.85-40.87,3.85-40.87,0,0-26.58,13.75-14.11,39.04,12.46,25.29-10.26,37.21-10.26,37.21,10.08-18.69-4.03-35.56-4.03-35.56,1.28,24.01-11.36,27.86-11.73,54.44-.37,26.58,40.14,44.35,40.14,44.35-13.38.55-20.53-3.85-20.53-3.85,10.81,9.53,32.27,12.27,43.62,12.65,55.97,1.83,62.32-35.37,62.32-35.37-8.25,7.7-28.23,8.98-28.23,8.98Z"/>
      <path class="cls-2" d="M75.91,205.37s-11.18-9.99-2.38-24.83c8.8-14.85,10.26-23.28,2.38-34.64,0,0,18.88,2.38,11.73,21.63s-15.21,17.96-11.73,37.85Z"/>
      <path class="cls-2" d="M154.35,186.77s-21.83-21.65-16.5-51.5c0,0,.98,20.89,16.07,30.18,0,0,3.6-5.13,1.89-12.77,0,0,7.2,7.76,1.95,19-3.04,6.52-4.15,9.78-3.42,15.09Z"/>
      <path class="cls-2" d="M8.95,237.47s-8.8-11.12-4.77-22.36c4.03-11.24,10.87-11.73,13.44-23.83,0,0,.65,9.91-5.99,19.06-8.51,11.73-2.69,27.13-2.69,27.13Z"/>
    </g>
  </g>
</svg>